<svg width="173" height="194" viewBox="0 0 173 194" fill="none" xmlns="http://www.w3.org/2000/svg">
<ellipse cx="84.9755" cy="188.718" rx="78.7675" ry="5.04422" fill="#131212"/>
<g clip-path="url(#clip0_27_223)">
<path d="M144.171 53.1683C135.224 37.1981 117.093 26.4842 98.6597 31.8961C88.3395 34.918 83.129 40.6229 75.3454 47.2069C71.884 50.1373 68.1021 50.4455 63.9996 48.1318C48.2675 39.231 34.8248 29.8998 16.2265 40.2841C-13.3971 56.8312 4.34957 99.5129 16.08 122.25C34.0372 157.048 63.6608 185.38 104.438 188.86C110.106 189.345 116.388 190.004 121.012 186.25C129.135 179.648 139.492 151.343 142.926 140.748C151.597 113.972 158.639 79.0008 144.171 53.1683Z" fill="#FFC7F3"/>
<path d="M137.276 26.7314L147.385 14.6073C148.512 12.3638 146.946 9.63492 144.336 10.1203C142.413 10.4774 133.32 20.9532 132.395 23.0502C130.939 26.3377 134.336 29.268 137.276 26.7406V26.7314Z" fill="white"/>
<path d="M107.954 17.7574C108.54 21.0082 113.449 20.2939 114.016 17.2903C114.41 15.2025 113.613 2.95016 112.652 1.3568C111.956 0.202995 110.427 -0.0534066 109.209 0.312882C108.137 0.633384 107.579 1.74141 107.441 2.76701C107.02 6.02698 107.35 14.4516 107.945 17.7574H107.954Z" fill="white"/>
<path d="M157.687 50.6775C158.978 50.5951 171.359 46.5751 171.963 45.9616C174.042 43.892 172.558 40.5405 169.601 40.6229C167.788 40.6687 157.907 43.5715 156.213 44.4873C152.779 46.3553 154.345 50.8973 157.687 50.6684V50.6775Z" fill="white"/>
<path d="M75.3454 47.2069C83.1291 40.6138 88.3395 34.918 98.6597 31.8961C117.093 26.4933 135.224 37.1981 144.171 53.1683C158.639 79.0008 151.598 113.981 142.926 140.748C139.492 151.334 129.135 179.648 121.012 186.25C116.388 190.004 110.106 189.345 104.438 188.86C63.67 185.38 34.0464 157.048 16.08 122.25C4.34961 99.5221 -13.4062 56.8403 16.2265 40.2841C34.8248 29.8998 48.2676 39.231 63.9997 48.1318C68.1021 50.4517 71.884 50.1434 75.3454 47.2069ZM131.534 47.7838C120.6 36.8135 106.681 34.5792 92.9456 42.0881C87.2224 45.2107 83.0009 50.6684 77.9461 54.7067C77.0029 55.4667 74.5121 56.355 74.4389 57.289C76.426 60.1369 78.7611 62.7742 80.5193 65.7869C81.2061 66.9499 83.7151 71.4919 83.532 72.4167C83.4862 72.6548 82.4331 74.2207 82.2042 74.4222C80.4185 75.9972 78.5871 74.7518 77.2593 73.2592C74.3748 70.0084 71.8657 65.4206 68.853 62.005C55.7032 47.0787 24.99 33.7367 11.7669 55.4942C-1.21798 76.8671 22.1787 118.038 35.1819 135.931C55.8131 164.337 75.8308 177.377 111.031 181.809C117.469 182.624 120.848 173.659 123.265 168.842C127.102 161.196 130.637 152.533 133.549 144.484C143.988 115.593 156.313 72.664 131.534 47.793V47.7838Z" fill="#131212"/>
<path d="M137.275 26.7314C134.345 29.268 130.948 26.3285 132.395 23.0411C133.32 20.9441 142.413 10.4682 144.336 10.1111C146.945 9.62577 148.502 12.3638 147.385 14.5981L137.275 26.7223V26.7314Z" fill="#131212"/>
<path d="M109.218 0.312894C110.436 -0.0533942 111.965 0.203008 112.661 1.35682C113.622 2.95017 114.419 15.2025 114.025 17.2904C113.458 20.2939 108.54 21.0173 107.954 17.7574C107.359 14.4516 107.029 6.01783 107.45 2.76703C107.588 1.74142 108.146 0.633396 109.218 0.312894Z" fill="#131212"/>
<path d="M171.963 45.9616C171.359 46.566 158.978 50.586 157.687 50.6775C154.345 50.9065 152.779 46.3645 156.213 44.4964C157.907 43.5715 167.778 40.6779 169.601 40.6321C172.568 40.5497 174.042 43.9012 171.963 45.9707V45.9616Z" fill="#131212"/>
<path d="M113.852 112.388C105.024 125.272 85.0889 132.131 69.9887 129.21C66.628 128.56 56.3445 124.897 59.0184 120.062C59.2107 119.714 60.8956 118.688 61.3443 118.67C62.3699 118.642 68.203 121.325 69.9063 121.792C80.9133 124.796 97.2131 120.455 105.427 112.397C107.579 110.282 110.583 103.469 114.273 106.463C116.462 108.249 115.106 110.547 113.843 112.388H113.852Z" fill="#131212"/>
<path d="M100.134 96.3262C100.738 95.6669 102.103 95.0992 103 95.2182C107.661 95.8409 106.92 110.831 100.931 108.102C98.2385 106.875 98.4583 98.1577 100.134 96.3262Z" fill="#131212"/>
<path d="M63.3038 99.1283C66.17 98.9818 67.333 102.544 67.626 104.888C67.9923 107.864 68.3586 113.871 63.7891 112.47C61.6647 111.82 58.0567 99.3939 63.3038 99.1283Z" fill="#131212"/>
</g>
<defs>
<clipPath id="clip0_27_223">
<rect width="172.925" height="189.078" fill="white" transform="translate(0 0.157209)"/>
</clipPath>
</defs>
</svg>
