<svg width="184" height="202" viewBox="0 0 184 202" fill="none" xmlns="http://www.w3.org/2000/svg">
<ellipse cx="105.215" cy="196.43" rx="78.7675" ry="5.04422" fill="#131212"/>
<g clip-path="url(#clip0_89_17)">
<path d="M153.38 116.804C168.739 99.7404 170.306 69.927 159.967 49.8994C136.455 4.31751 65.2106 -1.61963 40.4968 45.5218C25.8124 73.5295 36.6526 109.225 62.4777 126.207C60.1093 131.25 58.9433 134.278 61.3482 139.659C61.913 140.927 63.8351 143.134 63.9261 144.064C64.0355 145.14 63.079 146.654 62.9332 148.013C62.4413 152.618 65.2106 157.826 68.8817 160.48C64.5911 166.718 71.2319 172.92 76.1783 176.02C77.235 176.677 81.0427 177.972 81.2249 178.182C81.4162 178.41 81.571 180.608 82.3818 181.748C96.0186 200.873 138.131 197.17 144.754 175.218C145.155 173.886 145.282 170.603 145.492 170.238C145.583 170.083 147.295 169.326 147.833 168.852C152.615 164.629 156.405 158.154 151.331 152.491C155.312 147.064 158.154 142.44 155.931 135.482C155.685 134.707 154.474 133.412 154.474 133.102C154.474 132.655 156.897 129.399 156.851 126.134C156.796 122.012 154.765 120.188 153.39 116.795L153.38 116.804Z" fill="#FDF9C6"/>
<path d="M33.7377 34.5595C30.7042 33.1003 19.4086 29.6439 16.1565 29.2882C12.4308 28.8778 10.8093 32.2431 12.9045 34.7784C13.4237 35.4077 15.8377 36.2559 16.7577 36.6389C19.946 37.9431 28.3267 40.9801 31.433 41.3449C37.3814 42.038 38.6658 36.9308 33.7377 34.5595Z" fill="#FDF9C6"/>
<path d="M19.1168 62.859C16.885 63.0414 5.45275 65.4491 3.63998 66.2973C0.296836 67.8568 -0.35904 72.28 3.19362 73.0917C6.71896 73.9034 18.5156 70.8938 21.7404 69.0059C25.293 66.9266 23.0885 62.5398 19.1168 62.859Z" fill="#FDF9C6"/>
<path d="M48.1031 19.1832C50.6719 22.512 55.7277 21.3811 54.7712 16.5019C54.4068 14.6232 49.6335 4.61847 48.4401 2.94039C47.1648 1.13462 44.3045 0.104056 42.683 1.72742C41.9087 2.50263 41.9907 4.64583 42.182 5.71288C42.3915 6.83464 47.4199 18.2985 48.1031 19.1832Z" fill="#FDF9C6"/>
<path d="M145.474 170.238C145.264 170.612 145.136 173.886 144.736 175.218C138.113 197.17 96.0004 200.873 82.3636 181.748C81.5529 180.608 81.4071 178.41 81.2067 178.182C81.0246 177.972 77.2168 176.677 76.1601 176.02C71.2137 172.92 64.573 166.718 68.8635 160.48C65.1924 157.817 62.4141 152.609 62.9151 148.013C63.0608 146.654 64.0082 145.14 63.908 144.064C63.8169 143.134 61.8948 140.936 61.33 139.659C58.9252 134.278 60.0912 131.25 62.4596 126.207C36.6436 109.225 25.7943 73.5295 40.4786 45.5218C65.2106 -1.61963 136.455 4.31751 159.967 49.8903C170.297 69.9179 168.73 99.7313 153.371 116.795C154.747 120.188 156.769 122.002 156.833 126.134C156.878 129.399 154.455 132.655 154.455 133.102C154.455 133.403 155.667 134.707 155.913 135.482C158.136 142.44 155.293 147.073 151.313 152.491C156.387 158.154 152.597 164.63 147.815 168.852C147.277 169.326 145.565 170.074 145.474 170.238ZM144.207 40.5605C108.043 1.25318 38.0555 21.8371 42.5738 78.9103C44.9969 109.453 75.9051 131.925 105.42 130.895C152.251 129.262 176.136 75.2714 144.207 40.5605ZM148.352 140.316C141.019 145.651 131.992 150.539 123.055 152.518C118.692 153.485 107.414 155.865 110.166 148.068C116.214 144.803 123.493 144.246 130.106 141.684C135.626 139.54 146.594 133.065 148.471 127.246C149.145 125.167 148.434 124.839 147.851 122.914C129.149 139.139 101.666 143.425 78.5559 134.862C75.6318 133.776 72.817 132.326 70.0386 130.931C68.8817 130.822 68.4263 132.737 68.3625 133.612C67.8068 141.656 81.6349 141.984 82.2999 146.061C83.3657 152.527 73.7644 150.083 70.3757 148.77C71.0953 152.545 73.6824 154.324 76.8889 155.911C89.1137 161.957 111.395 160.434 124.513 157.47C133.276 155.491 145.929 149.737 148.343 140.316H148.352ZM77.8363 165.669C79.0934 169.354 84.1582 170.475 87.6015 171.059C101.858 173.449 124.212 172.71 137.047 165.532C138.159 164.912 146.731 159.167 145.373 157.717C125.205 171.305 100.765 169.49 77.8363 165.669ZM93.2311 180.088C92.5024 180.808 95.3719 182.359 95.8729 182.651C104.162 187.493 119.712 186.125 128.175 182.012C129.031 181.593 135.936 177.115 134.934 176.112C121.698 180.954 107.114 181.31 93.222 180.088H93.2311Z" fill="#131212"/>
<path d="M12.9135 34.7784C10.8183 32.2431 12.4398 28.8778 16.1656 29.2882C19.4176 29.6439 30.7133 33.1003 33.7467 34.5596C38.6749 36.9308 37.3996 42.038 31.442 41.3449C28.3448 40.9801 19.9551 37.9431 16.7668 36.6389C15.8467 36.265 13.4327 35.4168 12.9135 34.7784Z" fill="#131212"/>
<path d="M19.1171 62.859C23.0888 62.5307 25.2933 66.9266 21.7406 69.0059C18.5159 70.8938 6.71921 73.9034 3.19387 73.0917C-0.331465 72.28 0.297083 67.8477 3.64023 66.2973C5.453 65.4491 16.8853 63.0414 19.1171 62.859Z" fill="#131212"/>
<path d="M42.6831 1.72742C44.3046 0.104056 47.1558 1.13462 48.4402 2.94039C49.6336 4.61847 54.4069 14.6232 54.7713 16.5019C55.7277 21.3811 50.6629 22.512 48.1032 19.1832C47.42 18.2985 42.3916 6.84376 42.1821 5.71288C41.9817 4.64583 41.9088 2.50263 42.6831 1.72742Z" fill="#131212"/>
<path d="M139.753 66.8627C145.301 66.6894 142.267 73.7301 140.81 76.3293C132.274 91.5962 107.296 100.625 91.4003 92.6724C88.549 91.2406 80.2412 84.8657 83.803 81.4C86.8547 78.436 93.1219 84.5373 96.3649 85.7138C108.608 90.1462 124.914 84.9751 132.948 74.9248C134.77 72.6448 136.783 66.9539 139.753 66.8627Z" fill="#131212"/>
<path d="M122.9 55.8731C124.021 55.6815 126.043 56.4294 126.726 57.314C128.348 59.4299 131.135 68.7597 130.379 71.3498C129.559 74.1496 125.342 74.2043 123.811 71.669C123.465 71.0944 120.404 61.2539 120.25 60.278C119.958 58.4267 120.924 56.2196 122.9 55.8731Z" fill="#131212"/>
<path d="M94.0874 61.3542C98.1411 60.5152 100.865 68.559 101.448 71.6781C101.958 74.4323 102.222 77.0407 98.8152 77.5879C95.4083 78.1351 91.8921 68.0666 91.4457 65.2485C91.1633 63.4336 92.2929 61.7281 94.0966 61.3542H94.0874Z" fill="#131212"/>
<path d="M91.883 151.114C91.0176 150.065 91.0722 148.104 91.5732 146.9C92.7392 144.091 100.865 145.341 101.156 149.581C101.484 154.369 93.8415 153.494 91.883 151.114Z" fill="#131212"/>
</g>
<defs>
<clipPath id="clip0_89_17">
<rect width="165.745" height="193.217" fill="white" transform="translate(0.807129 0.915739)"/>
</clipPath>
</defs>
</svg>
