<svg width="252" height="209" viewBox="0 0 252 209" fill="none" xmlns="http://www.w3.org/2000/svg">
<ellipse cx="125.5" cy="203.5" rx="125.5" ry="5.5" fill="#131212"/>
<g clip-path="url(#clip0_118_138)">
<path d="M236.8 118.96C250.51 103.9 253.69 80.35 249.45 60.89C246.49 47.27 236.02 25.95 226.36 15.83C220.13 9.3 216.65 17.01 217.1 23.17C214.14 20.76 212.95 15.87 210.24 13.41C204.19 7.9 200.04 16.43 197.75 20.99C190.31 16.53 184.75 7.36 178.12 2.46C167.08 -5.69 163.86 8.34 160.39 16.09C159.19 17.01 142.04 2.14 138.73 1.49C134.5 0.650001 131.45 5 130.95 8.74C129.86 16.89 131.76 27.32 130.95 35.72C125.79 35.17 112.52 30.23 110.89 37.74C110.04 41.65 109.83 50.16 109.66 54.5C108.74 79.46 108.8 104.81 128.2 122.68C130.73 125.02 134.17 127.25 136.99 129.27C134.39 134.8 133.11 138.12 135.75 144.02C136.37 145.41 138.48 147.83 138.58 148.85C138.7 150.03 137.65 151.69 137.49 153.18C136.95 158.23 139.99 163.94 144.02 166.85C139.39 173.51 146.36 180.33 151.7 183.67C152.95 184.45 157.35 186.02 157.56 186.26C157.78 186.51 157.94 188.92 158.83 190.17C173.64 210.92 218.45 207.32 227.01 183.81C227.64 182.07 227.87 177.97 228.11 177.55C228.21 177.37 230.75 176.06 231.56 175.28C236.05 170.91 240 163.83 234.6 158.53V157.66C239.01 152.5 241.87 146.7 239.72 139.83C239.42 138.87 237.97 137.08 237.97 136.83C237.97 136.57 239.99 133.68 240.3 132.23C241.5 126.5 238.98 123.59 236.78 118.95L236.8 118.96Z" fill="#FDF9C6"/>
<path d="M124.13 147.49C122.89 144.85 118.37 144.65 116.25 146.38C114.69 140.27 113.74 132.13 107.36 128.82C101.47 125.77 97.5299 129.81 92.7899 132.49C91.1299 128.97 89.7499 125.33 88.2599 121.73C87.4399 119.75 86.7799 116.8 85.8199 114.91C84.1299 111.59 80.5599 110.05 76.9599 111.18C72.1199 112.69 67.2799 126.29 63.6299 130.01C62.6999 128.03 61.3799 126.08 60.3199 124.35C57.4699 119.69 49.3499 105.23 45.4499 102.96C43.2499 101.68 41.7399 101.34 39.2699 102.28C38.8299 102.45 38.7899 103.07 38.3899 103.26C37.3099 103.77 36.0899 103.86 35.0299 104.7C33.1699 106.18 30.5299 115.16 29.7099 117.92C28.2899 122.75 27.2099 127.8 26.2799 132.75C18.6899 129.9 8.3999 113.18 2.4299 127.7C-6.5001 149.41 10.7999 178.02 27.9799 190.72C64.2899 217.58 116.37 203.96 125.46 157.49C126.32 153.09 126.15 153.51 124.59 149.75C124.32 149.11 124.48 148.22 124.13 147.48V147.49Z" fill="#FDF9C6"/>
<path d="M130.97 8.73C131.47 5 134.51 0.650002 138.75 1.48C142.06 2.14 159.21 17 160.41 16.08C163.87 8.34 167.1 -5.7 178.14 2.45C184.78 7.35 190.33 16.52 197.77 20.98C200.06 16.42 204.21 7.89 210.26 13.4C212.96 15.86 214.15 20.75 217.12 23.16C216.67 17 220.15 9.29 226.38 15.82C236.04 25.94 246.5 47.25 249.47 60.88C253.7 80.34 250.52 103.89 236.82 118.95C239.02 123.59 241.53 126.5 240.34 132.23C240.04 133.68 238.01 136.57 238.01 136.83C238.01 137.09 239.46 138.88 239.76 139.83C241.91 146.69 239.05 152.49 234.64 157.66V158.53C240.03 163.83 236.09 170.91 231.59 175.28C230.78 176.07 228.24 177.37 228.14 177.55C227.9 177.98 227.67 182.07 227.04 183.81C218.49 207.33 173.67 210.92 158.86 190.17C157.97 188.92 157.81 186.51 157.59 186.26C157.37 186.01 152.97 184.45 151.73 183.67C146.39 180.32 139.41 173.51 144.05 166.85C140.02 163.93 136.97 158.22 137.52 153.18C137.68 151.69 138.72 150.03 138.61 148.85C138.51 147.83 136.4 145.42 135.78 144.02C133.14 138.12 134.42 134.8 137.02 129.27C134.2 127.25 130.76 125.02 128.23 122.68C108.83 104.8 108.77 79.45 109.69 54.5C109.85 50.16 110.07 41.65 110.92 37.74C112.55 30.22 125.82 35.17 130.98 35.72C131.79 27.32 129.89 16.89 130.98 8.74L130.97 8.73ZM206.22 23.18C201.38 34.27 195.79 31.12 188.21 25.09C182.66 20.68 178.4 14.91 173.22 10.1C168.18 19.63 163.74 29.81 160 39.94C154.78 54.06 151.12 69.95 142.86 82.77C138.71 89.2 128.12 89.19 121.15 89.68C120.41 98.53 126.5 107.49 132.39 113.61C155.38 137.5 194.84 141.7 221.19 120.74C243.94 102.64 246.99 73.45 236.77 47.41C234.05 40.49 228.83 34.57 225.29 28.08C224.61 27.92 224.6 28.65 224.47 29.15C223.19 34.09 223.35 38.59 216.3 35.16L206.22 23.17V23.18ZM157.14 23.19L139.15 11.73C139.15 19.62 140.38 28.14 139.71 36.01C139.14 42.62 135.13 46.39 128.49 46.64C127.32 46.68 126.34 46.11 125.24 46.08C123.44 46.03 121.59 47.01 119.52 45.53L118.97 77.69C123.98 76.48 129.02 76.58 134.15 76.51C137.07 69.86 140.76 63.49 143.6 56.8C146.83 49.18 149.63 41.43 152.88 33.92C154.41 30.4 155.65 26.72 157.13 23.19H157.14ZM231.29 144.74C223.24 150.59 213.33 155.95 203.52 158.12C198.73 159.18 186.35 161.79 189.37 153.24C196.01 149.66 204 149.05 211.26 146.24C217.32 143.89 229.36 136.79 231.42 130.41C232.16 128.13 231.38 127.77 230.74 125.66C210.21 143.45 180.04 148.15 154.67 138.76C151.46 137.57 148.37 135.98 145.32 134.45C144.05 134.33 143.55 136.43 143.48 137.39C142.87 146.21 158.05 146.57 158.78 151.04C159.95 158.13 149.41 155.45 145.69 154.01C146.48 158.15 149.32 160.1 152.84 161.84C166.26 168.47 190.72 166.8 205.12 163.55C214.74 161.38 228.63 155.07 231.28 144.74H231.29ZM153.87 172.54C155.25 176.58 160.81 177.81 164.59 178.45C180.24 181.07 204.78 180.26 218.87 172.39C220.09 171.71 229.5 165.41 228.01 163.82C205.87 178.72 179.04 176.73 153.87 172.54ZM170.78 188.35C169.98 189.14 173.13 190.84 173.68 191.16C182.78 196.47 199.85 194.97 209.14 190.46C210.08 190 217.66 185.09 216.56 183.99C202.03 189.3 186.02 189.69 170.77 188.35H170.78Z" fill="#131212"/>
<path d="M60.32 124.35C61.38 126.08 62.7 128.04 63.63 130.01C67.28 126.29 72.12 112.68 76.96 111.18C80.56 110.06 84.13 111.59 85.82 114.91C86.78 116.8 87.44 119.75 88.26 121.73C89.74 125.33 91.13 128.97 92.79 132.49C97.53 129.81 101.47 125.77 107.36 128.82C113.74 132.12 114.69 140.27 116.25 146.38C118.37 144.65 122.88 144.85 124.13 147.49C124.48 148.23 124.32 149.12 124.59 149.76C126.15 153.51 126.32 153.09 125.46 157.5C116.37 203.97 64.29 217.59 27.98 190.73C10.81 178.03 -6.49998 149.42 2.43002 127.71C8.41002 113.18 18.69 129.9 26.28 132.76C27.21 127.81 28.29 122.75 29.71 117.93C30.52 115.17 33.16 106.19 35.03 104.71C36.09 103.87 37.3 103.78 38.39 103.27C38.79 103.08 38.82 102.46 39.27 102.29C41.75 101.35 43.26 101.69 45.45 102.97C49.35 105.24 57.48 119.71 60.32 124.36V124.35ZM48.85 128.19C47.09 125.8 45.65 123.91 43.73 121.58C42.91 120.58 43 118.9 41.01 118.58L38.15 136.17L37.19 138.2L52.72 151.13L53.97 150.61L57.91 141.79C55.51 136.87 52.05 132.56 48.85 128.2V128.19ZM112.43 163.82C111.84 163.23 106.63 167.36 105.73 167.75C97.08 171.57 93.47 164.89 90.6 158.11L78.35 126.76C75.44 131.83 72.43 136.92 69.69 142.08C64.22 152.36 60.69 168.65 45.83 159.81C43.85 158.63 41.73 156.25 40.04 155.09C30.25 148.33 20.21 141.98 11.02 134.38C9.60002 145.9 13.12 157.74 20.29 166.8C34.46 184.72 60.34 196.75 83.07 190.34C96.82 186.47 107.07 176.9 112.42 163.82H112.43ZM106.93 153.38C106.35 151.33 104.71 139.49 102.91 139.33C93.68 143.25 99.84 148.84 102.06 155.42L106.93 153.38Z" fill="#131212"/>
<path d="M224.61 78.38C226.25 79.91 225.9 83.63 223.8 84.67C222.1 85.51 209.22 84.54 205.92 84.76C198.8 85.24 190.7 87.74 184.39 91.04C181.45 92.58 173.69 98.91 172 99.37C167.95 100.46 165.92 97.2 167.37 93.65C170.98 84.78 192.09 76.81 201.04 76.08C205.21 75.74 221.81 75.79 224.61 78.39V78.38Z" fill="#131212"/>
<path d="M203.35 52.15C204.58 51.94 206.8 52.76 207.55 53.73C209.33 56.05 212.39 66.28 211.56 69.12C210.66 72.19 206.03 72.25 204.35 69.47C203.97 68.84 200.61 58.05 200.44 56.98C200.12 54.95 201.18 52.53 203.35 52.15Z" fill="#131212"/>
<path d="M171.72 58.16C176.17 57.24 179.16 66.06 179.8 69.48C180.36 72.5 180.65 75.36 176.91 75.96C173.17 76.56 169.31 65.52 168.82 62.43C168.51 60.44 169.75 58.57 171.73 58.16H171.72Z" fill="#131212"/>
<path d="M169.3 156.58C168.35 155.43 168.41 153.28 168.96 151.96C170.24 148.88 179.16 150.25 179.48 154.9C179.84 160.15 171.45 159.19 169.3 156.58Z" fill="#131212"/>
</g>
<defs>
<clipPath id="clip0_118_138">
<rect width="251.2" height="204.38" fill="white"/>
</clipPath>
</defs>
</svg>
