<svg width="202" height="18" viewBox="0 0 202 18" fill="none" xmlns="http://www.w3.org/2000/svg">
<g clip-path="url(#clip0_76_20)">
<path d="M11.0061 11.5195C11.0152 12.1317 10.8992 12.6263 10.6549 13.0002C10.4075 13.3741 10.0869 13.6425 9.69292 13.8023C9.29592 13.9622 8.8806 14.0285 8.44084 14.0074C7.32924 13.9531 6.46806 13.534 5.85729 12.7469C5.24652 11.9598 4.94113 10.6571 4.94113 8.84171C4.94113 7.1741 5.21292 5.93469 5.75956 5.12652C6.3062 4.31834 7.1399 3.91426 8.26372 3.91426C8.67904 3.91426 9.04856 3.96854 9.36311 4.08011C9.67765 4.19169 9.94639 4.36056 10.1663 4.58673C10.3861 4.8129 10.5541 5.10239 10.6702 5.45823C10.7862 5.81407 10.8564 6.23324 10.8778 6.71875H15.706C15.7701 5.44014 15.5319 4.29723 15.0005 3.29003C14.4661 2.28283 13.6354 1.48671 12.5116 0.904706C11.3909 0.322699 9.97388 0.0332031 8.26372 0.0332031C6.55356 0.0332031 5.02969 0.389042 3.79594 1.10072C2.55913 1.8124 1.61854 2.83769 0.971124 4.16756C0.323708 5.49744 0 7.08363 0 8.92012C0 10.7566 0.311493 12.2946 0.937532 13.6485C1.56357 15.0056 2.495 16.061 3.73181 16.8179C4.96862 17.5748 6.5047 17.9488 8.34312 17.9488C9.93723 17.9488 11.2931 17.6804 12.4108 17.1406C13.5286 16.6008 14.3775 15.8499 14.9547 14.8819C15.5319 13.9139 15.8037 12.7921 15.7731 11.5165H11.0091L11.0061 11.5195Z" fill="#131212"/>
<path d="M33.4149 1.08567C32.1689 0.373991 30.6664 0.0151367 28.9135 0.0151367C27.2888 0.0151367 25.8383 0.370975 24.5648 1.08567C23.2914 1.79734 22.2928 2.81963 21.5629 4.15251C20.8361 5.48238 20.4727 7.06858 20.4727 8.90507C20.4727 10.8471 20.8177 12.4876 21.5079 13.8235C22.1981 15.1594 23.1692 16.1726 24.4213 16.8602C25.6734 17.5447 27.1484 17.8885 28.8494 17.8885C30.4557 17.8885 31.891 17.5447 33.1645 16.8602C34.4379 16.1726 35.4426 15.1624 36.1817 13.8235C36.9207 12.4876 37.2872 10.8471 37.2872 8.90507C37.2872 7.06858 36.9543 5.48238 36.2855 4.15251C35.6167 2.81963 34.6608 1.80036 33.4149 1.08567ZM31.3535 12.7469C30.7 13.4586 29.8877 13.8144 28.9135 13.8144C27.9393 13.8144 27.1575 13.4405 26.4735 12.6896C25.7894 11.9387 25.4474 10.6752 25.4474 8.90205C25.4474 7.12889 25.7741 5.94678 26.4246 5.20194C27.0781 4.45709 27.8905 4.08315 28.8646 4.08315C29.8388 4.08315 30.6328 4.45709 31.3108 5.20194C31.9887 5.94678 32.3308 7.18016 32.3308 8.90205C32.3308 10.7506 32.004 12.0322 31.3535 12.7439V12.7469Z" fill="#131212"/>
<path d="M54.8686 0.949967C53.7295 0.325742 52.3248 0.0151367 50.6574 0.0151367C48.99 0.0151367 47.4355 0.358913 46.1499 1.04647C44.8673 1.73402 43.8717 2.74424 43.1632 4.08014C42.4578 5.41604 42.1035 7.05652 42.1035 9.00157C42.1035 10.9466 42.4364 12.4846 43.0991 13.8114C43.7618 15.1383 44.7207 16.1485 45.9697 16.8451C47.2218 17.5417 48.7365 17.8915 50.5108 17.8915C52.0102 17.8915 53.3081 17.6503 54.4105 17.1708C55.513 16.6913 56.3833 16.0098 57.0185 15.1262C57.6537 14.2457 58.0202 13.2083 58.1149 12.0141H53.3386C53.2531 12.6384 52.9813 13.1389 52.5263 13.5189C52.0713 13.8989 51.4055 14.0889 50.5291 14.0889C49.4725 14.0889 48.6449 13.7602 48.0585 13.0997C47.4722 12.4393 47.1179 11.3929 47.0019 9.95449H58.2645C58.2859 9.58357 58.3042 9.25488 58.3195 8.96538C58.3347 8.67588 58.3439 8.41956 58.3439 8.19641C58.3439 6.42325 58.0507 4.92752 57.4644 3.71224C56.875 2.49696 56.0138 1.57721 54.8717 0.952982L54.8686 0.949967ZM53.5432 7.18016H47.1179C47.2523 6.38103 47.4569 5.66935 47.802 5.14464C48.3578 4.29425 49.2404 3.86905 50.4497 3.86905C51.4758 3.86905 52.2392 4.14648 52.734 4.6923C53.2317 5.24114 53.5005 6.07042 53.5432 7.18016Z" fill="#131212"/>
<path d="M74.132 11.8181C73.8663 12.4001 73.4601 12.9037 72.9196 13.3319C72.3821 13.7601 71.7775 13.9742 71.1148 13.9742C70.6659 13.9742 70.2811 13.8717 69.9604 13.6667C69.6398 13.4616 69.3924 13.0786 69.2122 12.5177C69.0382 11.9568 68.9496 11.1456 68.9496 10.0781V0.349854H63.9443V11.7246C63.9443 13.8265 64.3841 15.3976 65.2605 16.438C66.137 17.4784 67.3677 17.997 68.9496 17.997C70.22 17.997 71.2339 17.7286 71.9882 17.1979C72.7425 16.6641 73.3105 15.9766 73.6892 15.1292C74.019 14.3994 74.2358 13.6184 74.3732 12.8102L74.7061 17.6502H79.1342V0.349854H74.1289V11.8211L74.132 11.8181Z" fill="#131212"/>
<path d="M95.4272 8.58929e-05C94.6912 8.58929e-05 94.0346 0.147849 93.4636 0.443376C92.8925 0.738903 92.4008 1.15505 91.9947 1.69484C91.5885 2.23463 91.2556 2.87393 90.9991 3.61878C90.825 4.11635 90.7456 4.70741 90.6449 5.27735L90.3425 0.361956H85.8809V17.6503H90.8861V6.48057C91.1213 6.14282 91.4144 5.86539 91.7687 5.64827C92.1199 5.43115 92.5352 5.27132 93.0116 5.16578C93.488 5.06023 94.0194 5.00595 94.6088 5.00595C94.9416 5.00595 95.2745 5.02404 95.6104 5.06023C95.9463 5.09642 96.2975 5.16276 96.664 5.25926V0.141818C96.493 0.0875377 96.2945 0.0513508 96.0777 0.0302417C95.8578 0.00913263 95.641 -0.00292969 95.4272 -0.00292969V8.58929e-05Z" fill="#131212"/>
<path d="M116.346 11.5195C116.355 12.1317 116.239 12.6263 115.995 13.0002C115.747 13.3741 115.427 13.6425 115.033 13.8023C114.636 13.9622 114.221 14.0285 113.781 14.0074C112.669 13.9531 111.808 13.534 111.197 12.7469C110.586 11.9598 110.281 10.6571 110.281 8.84171C110.281 7.1741 110.553 5.93469 111.1 5.12652C111.646 4.31834 112.48 3.91426 113.604 3.91426C114.019 3.91426 114.389 3.96854 114.703 4.08011C115.018 4.19169 115.286 4.36056 115.506 4.58673C115.726 4.8129 115.894 5.10239 116.01 5.45823C116.129 5.81407 116.196 6.23324 116.218 6.71875H121.046C121.11 5.44014 120.872 4.29723 120.34 3.29003C119.806 2.28283 118.975 1.48671 117.852 0.904706C116.728 0.322699 115.311 0.0332031 113.601 0.0332031C111.89 0.0332031 110.367 0.389042 109.133 1.10072C107.896 1.8124 106.955 2.83769 106.308 4.16756C105.661 5.49744 105.337 7.08363 105.337 8.92012C105.337 10.7566 105.648 12.2946 106.274 13.6485C106.9 15.0056 107.832 16.061 109.069 16.8179C110.306 17.5748 111.842 17.9488 113.68 17.9488C115.274 17.9488 116.63 17.6804 117.748 17.1406C118.865 16.6008 119.714 15.8499 120.292 14.8819C120.869 13.9139 121.141 12.7921 121.11 11.5165H116.346V11.5195Z" fill="#131212"/>
<path d="M138.752 1.08567C137.506 0.373991 136.003 0.0151367 134.25 0.0151367C132.626 0.0151367 131.175 0.370975 129.902 1.08567C128.628 1.79734 127.63 2.81963 126.9 4.15251C126.173 5.48238 125.81 7.06858 125.81 8.90507C125.81 10.8471 126.155 12.4876 126.845 13.8235C127.535 15.1594 128.506 16.1726 129.758 16.8602C131.01 17.5447 132.485 17.8885 134.186 17.8885C135.793 17.8885 137.228 17.5447 138.501 16.8602C139.775 16.1726 140.78 15.1624 141.519 13.8235C142.258 12.4876 142.624 10.8471 142.624 8.90507C142.624 7.06858 142.291 5.48238 141.622 4.15251C140.954 2.81963 139.998 1.80036 138.752 1.08567ZM136.69 12.7469C136.037 13.4586 135.225 13.8144 134.25 13.8144C133.276 13.8144 132.494 13.4405 131.81 12.6896C131.126 11.9387 130.784 10.6752 130.784 8.90205C130.784 7.12889 131.111 5.94678 131.762 5.20194C132.415 4.45709 133.227 4.08315 134.202 4.08315C135.176 4.08315 135.97 4.45709 136.648 5.20194C137.326 5.94678 137.668 7.18016 137.668 8.90205C137.668 10.7506 137.341 12.0322 136.69 12.7439V12.7469Z" fill="#131212"/>
<path d="M160.205 0.949967C159.065 0.325742 157.661 0.0151367 155.993 0.0151367C154.326 0.0151367 152.771 0.358913 151.486 1.04647C150.203 1.73402 149.208 2.74424 148.499 4.08014C147.794 5.41604 147.439 7.05652 147.439 9.00157C147.439 10.9466 147.772 12.4846 148.435 13.8114C149.098 15.1383 150.057 16.1485 151.306 16.8451C152.558 17.5417 154.072 17.8915 155.847 17.8915C157.346 17.8915 158.644 17.6503 159.746 17.1708C160.849 16.6913 161.719 16.0098 162.354 15.1262C162.99 14.2457 163.356 13.2083 163.451 12.0141H158.675C158.589 12.6384 158.317 13.1389 157.862 13.5189C157.407 13.8989 156.741 14.0889 155.865 14.0889C154.808 14.0889 153.981 13.7602 153.394 13.0997C152.808 12.4393 152.454 11.3929 152.338 9.95449H163.6C163.622 9.58357 163.64 9.25488 163.655 8.96538C163.671 8.67588 163.68 8.41956 163.68 8.19641C163.68 6.42325 163.387 4.92752 162.8 3.71224C162.211 2.49696 161.347 1.57721 160.208 0.952982L160.205 0.949967ZM158.879 7.18016H152.454C152.588 6.38103 152.793 5.66935 153.138 5.14464C153.694 4.29425 154.576 3.86905 155.786 3.86905C156.812 3.86905 157.575 4.14648 158.07 4.6923C158.568 5.24114 158.836 6.07042 158.879 7.18016Z" fill="#131212"/>
<path d="M179.469 11.8181C179.203 12.4001 178.797 12.9037 178.257 13.3319C177.719 13.7601 177.114 13.9742 176.452 13.9742C176.003 13.9742 175.618 13.8717 175.297 13.6667C174.977 13.4616 174.729 13.0786 174.549 12.5177C174.375 11.9568 174.287 11.1456 174.287 10.0781V0.349854H169.281V11.7246C169.281 13.8265 169.721 15.3976 170.597 16.438C171.471 17.4784 172.705 17.997 174.287 17.997C175.56 17.997 176.571 17.7286 177.325 17.1979C178.079 16.6641 178.647 15.9766 179.026 15.1292C179.356 14.3994 179.573 13.6184 179.713 12.8102L180.046 17.6502H184.474V0.349854H179.469V11.8211V11.8181Z" fill="#131212"/>
<path d="M201.414 0.0331714C201.194 0.0120623 200.977 0 200.763 0C200.027 0 199.371 0.147763 198.799 0.44329C198.228 0.738817 197.737 1.15497 197.331 1.69476C196.924 2.23454 196.592 2.87385 196.335 3.6187C196.161 4.11627 196.082 4.70732 195.981 5.27727L195.678 0.36187H191.217V17.6502H196.222V6.48048C196.457 6.14274 196.75 5.8653 197.105 5.64818C197.456 5.43106 197.871 5.27123 198.348 5.16569C198.824 5.06014 199.355 5.00586 199.945 5.00586C200.278 5.00586 200.61 5.02396 200.946 5.06014C201.282 5.09633 201.633 5.16267 202 5.25917V0.141732C201.829 0.0874518 201.63 0.0512649 201.414 0.0301558V0.0331714Z" fill="#131212"/>
</g>
<defs>
<clipPath id="clip0_76_20">
<rect width="202" height="18" fill="white"/>
</clipPath>
</defs>
</svg>
