<svg width="272" height="79" viewBox="0 0 272 79" fill="none" xmlns="http://www.w3.org/2000/svg">
<g clip-path="url(#clip0_26_70)">
<path d="M59.86 22.6059C56.1482 15.9964 48.6159 11.568 40.9626 13.8033C36.6765 15.0565 34.5123 17.4123 31.2841 20.1416C29.8454 21.3547 28.2736 21.4832 26.5688 20.5272C20.04 16.8459 14.4542 12.9839 6.73437 17.2797C-5.56771 24.1302 1.80145 41.7895 6.67392 51.1945C14.1338 65.5943 26.4298 77.319 43.3565 78.759C45.7081 78.9578 48.3196 79.235 50.236 77.6805C53.6092 74.9512 57.9074 63.2325 59.3341 58.8523C62.9371 47.7723 65.8569 33.3003 59.854 22.6119L59.86 22.6059Z" fill="#FFC7F4"/>
<path d="M57.0006 11.6644L61.196 6.64555C61.6615 5.71769 61.0147 4.59102 59.9326 4.78984C59.1346 4.93444 55.3563 9.27245 54.9755 10.1401C54.3709 11.5017 55.7855 12.7127 57.0006 11.6644Z" fill="white"/>
<path d="M44.8255 7.953C45.0673 9.3026 47.1046 9.00135 47.3464 7.7602C47.5096 6.89862 47.1771 1.82556 46.7781 1.16281C46.488 0.686829 45.8532 0.578379 45.3515 0.729004C44.9041 0.861555 44.6744 1.31946 44.62 1.74723C44.4447 3.09684 44.5837 6.58532 44.8255 7.953Z" fill="white"/>
<path d="M65.4701 21.5695C66.0081 21.5334 71.1466 19.8705 71.4005 19.6174C72.265 18.7619 71.6483 17.3761 70.4151 17.4062C69.6595 17.4243 65.5608 18.6233 64.8595 19.0089C63.4328 19.7861 64.0857 21.6599 65.4701 21.5695Z" fill="white"/>
<path d="M31.2842 20.1356C34.5184 17.4062 36.6826 15.0505 40.9626 13.7973C48.6159 11.562 56.1483 15.9904 59.8601 22.5998C65.8691 33.2882 62.9432 47.7603 59.3402 58.8403C57.9135 63.2205 53.6153 74.9391 50.2421 77.6684C48.3257 79.2229 45.7142 78.9457 43.3626 78.7469C26.4359 77.3069 14.1338 65.5823 6.68002 51.1825C1.80755 41.7774 -5.56161 24.1121 6.74047 17.2677C14.4603 12.9718 20.04 16.8339 26.5749 20.5152C28.2757 21.4751 29.8474 21.3466 31.2902 20.1296L31.2842 20.1356ZM54.6128 20.3766C50.0728 15.8337 44.2936 14.9119 38.5869 18.0208C36.2111 19.3162 34.4579 21.5695 32.3602 23.2445C31.9673 23.5578 30.9336 23.9253 30.9033 24.3169C31.7255 25.4918 32.6988 26.5823 33.4303 27.8355C33.7144 28.3175 34.7542 30.1974 34.6816 30.5769C34.6635 30.6794 34.2282 31.324 34.1315 31.4024C33.3879 32.0531 32.6323 31.5409 32.0761 30.9204C30.8792 29.5768 29.8333 27.6789 28.588 26.263C23.1292 20.0874 10.3797 14.5624 4.88458 23.5698C-0.507781 32.4146 9.20694 49.4533 14.6053 56.858C23.1715 68.6129 31.4837 74.0052 46.0951 75.8429C48.7671 76.1803 50.1696 72.4689 51.1731 70.4746C52.763 67.3114 54.238 63.7266 55.441 60.3947C59.7755 48.4411 64.8958 30.6733 54.6068 20.3826L54.6128 20.3766Z" fill="#131212"/>
<path d="M57.0006 11.6644C55.7855 12.7128 54.3709 11.4957 54.9755 10.1401C55.3624 9.27247 59.1346 4.94049 59.9326 4.78986C61.0147 4.59104 61.6615 5.72374 61.196 6.64557L57.0006 11.6644Z" fill="#131212"/>
<path d="M45.3455 0.729004C45.8533 0.578379 46.488 0.686829 46.7721 1.16281C47.1711 1.82556 47.5036 6.89259 47.3404 7.7602C47.1046 9.00135 45.0674 9.3026 44.8195 7.953C44.5717 6.58532 44.4326 3.09684 44.614 1.74723C44.6684 1.32548 44.9042 0.861555 45.3455 0.729004Z" fill="#131212"/>
<path d="M71.3944 19.6235C71.1405 19.8765 66.002 21.5394 65.464 21.5756C64.0736 21.666 63.4267 19.7922 64.8534 19.0149C65.5547 18.6354 69.6533 17.4364 70.409 17.4123C71.6422 17.3822 72.2528 18.7619 71.3944 19.6235Z" fill="#131212"/>
<path d="M47.2738 47.1096C43.6043 52.4417 35.3344 55.2795 29.0655 54.0685C27.6691 53.7973 23.4011 52.2851 24.5134 50.2787C24.592 50.1341 25.2933 49.7124 25.4807 49.7064C25.9039 49.6943 28.328 50.8089 29.0353 51.0017C33.6055 52.2429 40.3701 50.4474 43.7857 47.1156C44.6804 46.242 45.9257 43.4162 47.4552 44.6634C48.368 45.4045 47.7998 46.3565 47.2799 47.1156L47.2738 47.1096Z" fill="#131212"/>
<path d="M41.5792 40.464C41.8271 40.1928 42.3953 39.9579 42.7701 40.0061C44.7046 40.2651 44.3963 46.4709 41.9117 45.3382C40.7933 44.8321 40.884 41.2231 41.5853 40.464H41.5792Z" fill="#131212"/>
<path d="M26.2848 41.6208C27.4757 41.5605 27.9593 43.0306 28.0802 44.0067C28.2313 45.2358 28.3825 47.7241 26.4903 47.1457C25.6077 46.8746 24.1085 41.7353 26.2908 41.6208H26.2848Z" fill="#131212"/>
<path d="M102.437 23.0156C102.455 24.2386 102.225 25.2267 101.742 25.9739C101.252 26.721 100.617 27.2572 99.8373 27.5765C99.0515 27.8958 98.2293 28.0284 97.3588 27.9862C95.1583 27.8778 93.4536 27.0403 92.2445 25.4678C91.0355 23.8952 90.4309 21.2924 90.4309 17.6654C90.4309 14.3335 90.969 11.8572 92.0511 10.2425C93.1332 8.62783 94.7835 7.82048 97.0082 7.82048C97.8303 7.82048 98.5618 7.92893 99.1845 8.15186C99.8071 8.37478 100.339 8.71218 100.774 9.16406C101.21 9.61593 101.542 10.1943 101.772 10.9053C102.002 11.6162 102.141 12.4537 102.183 13.4237H111.74C111.867 10.8691 111.396 8.58566 110.344 6.5733C109.286 4.56095 107.642 2.97034 105.417 1.80751C103.192 0.644686 100.387 0.0662842 97.0021 0.0662842C93.6168 0.0662842 90.6002 0.777236 88.1579 2.19914C85.7096 3.62104 83.8477 5.66955 82.5661 8.32658C81.2845 10.9836 80.6437 14.1528 80.6437 17.822C80.6437 21.4912 81.2603 24.564 82.4996 27.2692C83.7388 29.9805 85.5826 32.0892 88.031 33.6015C90.4793 35.1138 93.5201 35.8609 97.1593 35.8609C100.315 35.8609 102.999 35.3247 105.212 34.2462C107.424 33.1677 109.105 31.6675 110.247 29.7335C111.39 27.7994 111.928 25.5581 111.867 23.0095H102.437V23.0156Z" fill="#131212"/>
<path d="M146.797 2.16903C144.33 0.747128 141.356 0.0301514 137.886 0.0301514C134.67 0.0301514 131.799 0.741103 129.278 2.16903C126.757 3.59094 124.78 5.63342 123.335 8.29647C121.897 10.9535 121.177 14.1227 121.177 17.7919C121.177 21.672 121.86 24.9496 123.226 27.6187C124.593 30.2878 126.515 32.3122 128.994 33.6859C131.472 35.0536 134.392 35.7404 137.759 35.7404C140.939 35.7404 143.78 35.0536 146.301 33.6859C148.822 32.3122 150.811 30.2938 152.274 27.6187C153.737 24.9496 154.462 21.672 154.462 17.7919C154.462 14.1227 153.803 10.9535 152.479 8.29647C151.156 5.63342 149.263 3.59696 146.797 2.16903ZM142.716 25.4678C141.423 26.8897 139.815 27.6006 137.886 27.6006C135.958 27.6006 134.41 26.8535 133.056 25.3533C131.702 23.8531 131.025 21.3286 131.025 17.7859C131.025 14.2432 131.672 11.8814 132.959 10.3932C134.253 8.905 135.861 8.1579 137.789 8.1579C139.718 8.1579 141.29 8.905 142.632 10.3932C143.974 11.8814 144.651 14.3456 144.651 17.7859C144.651 21.4792 144.004 24.0398 142.716 25.4617V25.4678Z" fill="#131212"/>
<path d="M189.265 1.89791C187.01 0.650728 184.229 0.0301514 180.928 0.0301514C177.628 0.0301514 174.551 0.717003 172.006 2.09071C169.467 3.46441 167.496 5.48279 166.093 8.15187C164.697 10.821 163.996 14.0986 163.996 17.9847C163.996 21.8708 164.655 24.9436 165.966 27.5946C167.278 30.2456 169.176 32.264 171.649 33.6558C174.127 35.0475 177.126 35.7464 180.638 35.7464C183.606 35.7464 186.176 35.2644 188.358 34.3065C190.54 33.3485 192.263 31.9868 193.521 30.2215C194.778 28.4622 195.503 26.3896 195.691 24.0037H186.236C186.067 25.2509 185.529 26.251 184.628 27.0102C183.727 27.7693 182.409 28.1489 180.674 28.1489C178.583 28.1489 176.945 27.4922 175.784 26.1727C174.623 24.8532 173.922 22.7625 173.692 19.8886H195.987C196.029 19.1475 196.066 18.4908 196.096 17.9124C196.126 17.334 196.144 16.8219 196.144 16.376C196.144 12.8333 195.564 9.8449 194.403 7.41682C193.236 4.98874 191.526 3.15111 189.271 1.90393L189.265 1.89791ZM186.641 14.3456H173.922C174.188 12.749 174.593 11.3271 175.276 10.2787C176.376 8.57965 178.123 7.73012 180.517 7.73012C182.548 7.73012 184.06 8.28442 185.039 9.37495C186.024 10.4715 186.556 12.1284 186.641 14.3456Z" fill="#131212"/>
<path d="M227.398 23.612C226.872 24.7749 226.068 25.7811 224.998 26.6366C223.934 27.4922 222.737 27.9199 221.425 27.9199C220.537 27.9199 219.775 27.7151 219.14 27.3054C218.506 26.8957 218.016 26.1305 217.659 25.0099C217.315 23.8892 217.139 22.2685 217.139 20.1356V0.698914H207.231V23.4253C207.231 27.6247 208.102 30.7637 209.837 32.8424C211.566 34.921 214.008 35.9573 217.139 35.9573C219.654 35.9573 221.661 35.4211 223.154 34.3607C224.648 33.2942 225.772 31.9205 226.522 30.2275C227.174 28.7695 227.604 27.209 227.876 25.5943L228.535 35.2644H237.3V0.698914H227.392V23.6181L227.398 23.612Z" fill="#131212"/>
<path d="M270.833 0.0662752C270.398 0.0241001 269.969 0 269.546 0C268.089 0 266.789 0.295226 265.659 0.885677C264.528 1.47613 263.555 2.30758 262.751 3.38606C261.947 4.46454 261.288 5.74184 260.78 7.23002C260.435 8.22415 260.278 9.40505 260.079 10.5438L259.48 0.723002H250.648V35.2644H260.556V12.9478C261.022 12.273 261.602 11.7187 262.303 11.2849C262.999 10.8511 263.821 10.5317 264.764 10.3209C265.707 10.11 266.759 10.0015 267.926 10.0015C268.584 10.0015 269.243 10.0377 269.908 10.11C270.573 10.1823 271.269 10.3148 271.994 10.5076V0.283176C271.655 0.174725 271.263 0.102425 270.833 0.0602502V0.0662752Z" fill="#131212"/>
<path d="M102.437 66.0522C102.455 67.2753 102.225 68.2634 101.742 69.0105C101.252 69.7576 100.617 70.2939 99.8373 70.6132C99.0515 70.9325 98.2293 71.0651 97.3588 71.0229C95.1583 70.9144 93.4536 70.077 92.2445 68.5044C91.0355 66.9319 90.4309 64.3291 90.4309 60.702C90.4309 57.3702 90.969 54.8939 92.0511 53.2792C93.1332 51.6645 94.7835 50.8572 97.0082 50.8572C97.8303 50.8572 98.5618 50.9656 99.1845 51.1885C99.8071 51.4115 100.339 51.7489 100.774 52.2007C101.21 52.6526 101.542 53.231 101.772 53.942C102.002 54.6529 102.141 55.4904 102.183 56.4604H111.74C111.867 53.9058 111.396 51.6223 110.344 49.61C109.286 47.5976 107.642 46.007 105.417 44.8442C103.192 43.6814 100.387 43.103 97.0021 43.103C93.6168 43.103 90.6002 43.8139 88.1579 45.2358C85.7096 46.6577 83.8477 48.7062 82.5661 51.3633C81.2845 54.0203 80.6437 57.1895 80.6437 60.8587C80.6437 64.5279 81.2603 67.6007 82.4996 70.3059C83.7388 73.0172 85.5826 75.1259 88.031 76.6382C90.4793 78.1505 93.5201 78.8976 97.1593 78.8976C100.315 78.8976 102.999 78.3614 105.212 77.2829C107.424 76.2044 109.105 74.7042 110.247 72.7701C111.39 70.8361 111.928 68.5948 111.867 66.0462H102.437V66.0522Z" fill="#131212"/>
<path d="M146.797 45.2057C144.33 43.7838 141.356 43.0668 137.886 43.0668C134.67 43.0668 131.799 43.7778 129.278 45.2057C126.757 46.6276 124.78 48.6701 123.335 51.3331C121.897 53.9902 121.177 57.1593 121.177 60.8285C121.177 64.7087 121.86 67.9863 123.226 70.6553C124.593 73.3244 126.515 75.3488 128.994 76.7225C131.472 78.0902 134.392 78.7771 137.759 78.7771C140.939 78.7771 143.78 78.0902 146.301 76.7225C148.822 75.3488 150.811 73.3305 152.274 70.6553C153.737 67.9863 154.462 64.7087 154.462 60.8285C154.462 57.1593 153.803 53.9902 152.479 51.3331C151.156 48.6701 149.263 46.6336 146.797 45.2057ZM142.716 68.5104C141.423 69.9323 139.815 70.6433 137.886 70.6433C135.958 70.6433 134.41 69.8962 133.056 68.396C131.702 66.8957 131.025 64.3773 131.025 60.8285C131.025 57.2798 131.672 54.924 132.959 53.4359C134.253 51.9477 135.861 51.2006 137.789 51.2006C139.718 51.2006 141.29 51.9477 142.632 53.4359C143.974 54.924 144.651 57.3883 144.651 60.8285C144.651 64.5219 144.004 67.0825 142.716 68.5044V68.5104Z" fill="#131212"/>
<path d="M189.265 44.9346C187.01 43.6874 184.229 43.0668 180.928 43.0668C177.628 43.0668 174.551 43.7537 172.006 45.1274C169.467 46.5011 167.496 48.5194 166.093 51.1885C164.697 53.8576 163.996 57.1352 163.996 61.0213C163.996 64.9075 164.655 67.9802 165.966 70.6312C167.278 73.2823 169.176 75.3006 171.649 76.6924C174.127 78.0842 177.126 78.7831 180.638 78.7831C183.606 78.7831 186.176 78.3011 188.358 77.3431C190.54 76.3851 192.263 75.0235 193.521 73.2582C194.778 71.4988 195.503 69.4262 195.691 67.0403H186.236C186.067 68.2875 185.529 69.2877 184.628 70.0468C183.727 70.806 182.409 71.1855 180.674 71.1855C178.583 71.1855 176.945 70.5288 175.784 69.2093C174.623 67.8899 173.922 65.7992 173.692 62.9253H195.987C196.029 62.1842 196.066 61.5274 196.096 60.949C196.126 60.3706 196.144 59.8585 196.144 59.4127C196.144 55.87 195.564 52.8815 194.403 50.4535C193.236 48.0254 191.526 46.1878 189.271 44.9406L189.265 44.9346ZM186.641 57.3822H179.653H177.718H173.922C174.188 55.7856 174.593 54.3637 175.276 53.3154C176.376 51.6163 178.123 50.7668 180.517 50.7668C182.548 50.7668 184.06 51.3211 185.039 52.4116C186.024 53.5082 186.556 55.165 186.641 57.3822Z" fill="#131212"/>
<path d="M227.398 66.6548C226.872 67.8176 226.068 68.8238 224.998 69.6793C223.934 70.5349 222.737 70.9626 221.425 70.9626C220.537 70.9626 219.775 70.7578 219.14 70.3481C218.506 69.9384 218.016 69.1732 217.659 68.0526C217.315 66.9319 217.139 65.3112 217.139 63.1783V43.7416H207.231V66.468C207.231 70.6674 208.102 73.8064 209.837 75.8851C211.566 77.9637 214.008 79 217.139 79C219.654 79 221.661 78.4638 223.154 77.4034C224.648 76.337 225.772 74.9633 226.522 73.2702C227.174 71.8122 227.604 70.2517 227.876 68.637L228.535 78.3071H237.3V43.7356H227.392V66.6548H227.398Z" fill="#131212"/>
<path d="M269.546 43.0367C268.089 43.0367 266.789 43.3319 265.659 43.9224C264.528 44.5128 263.555 45.3443 262.751 46.4228C261.947 47.5012 261.288 48.7785 260.78 50.2667C260.435 51.2608 260.278 52.4417 260.079 53.5805L259.48 43.7597H250.648V78.3011H260.556V55.9845C261.022 55.3097 261.602 54.7554 262.303 54.3216C262.999 53.8878 263.821 53.5684 264.764 53.3575C265.707 53.1467 266.759 53.0382 267.926 53.0382C268.584 53.0382 269.243 53.0744 269.908 53.1467C270.573 53.219 271.269 53.3515 271.994 53.5443V43.3199C271.655 43.2114 271.263 43.1391 270.833 43.0969C270.398 43.0548 269.969 43.0307 269.546 43.0307V43.0367Z" fill="#131212"/>
</g>
<defs>
<clipPath id="clip0_26_70">
<rect width="272" height="79" fill="white"/>
</clipPath>
</defs>
</svg>
