<svg width="171" height="202" viewBox="0 0 171 202" fill="none" xmlns="http://www.w3.org/2000/svg">
<ellipse cx="85.8532" cy="196.43" rx="78.7675" ry="5.04422" fill="#131212"/>
<g clip-path="url(#clip0_89_18)">
<path d="M159.792 81.5322C154.223 72.6074 147.464 61.9461 138.144 57.0734C123.772 49.5569 103.271 41.7899 87.7952 36.3988C82.743 34.6363 76.9839 32.364 71.5869 33.1071C62.8793 34.2993 54.6287 46.654 49.4214 53.2892C40.4982 64.659 31.4975 76.7631 24.1348 89.1783C20.6259 95.0878 16.5308 100.617 12.7546 106.501C7.55591 114.561 0.0121987 125.11 0.719152 134.934C1.8658 150.71 9.05603 153.457 21.0742 160.697C42.5243 173.613 66.2589 185.908 90.1229 193.718C107.288 199.334 115.254 201.234 126.867 185.527C141.86 165.259 155.551 140.601 168.448 118.873C175.423 106.095 166.551 92.4008 159.775 81.5408L159.792 81.5322Z" fill="#EEE1FF"/>
<path d="M66.5864 19.0245C68.7418 22.3334 73.0352 20.0526 71.8455 15.1625C71.2592 12.7694 66.8106 1.22683 65.0087 0.354225C64.388 0.0518376 63.8017 -0.112315 63.112 0.0777565C60.9049 0.682531 60.7584 3.71504 61.2153 5.57256C61.836 8.11261 65.2328 16.9337 66.595 19.0158L66.5864 19.0245Z" fill="white"/>
<path d="M97.477 19.491C98.5374 17.789 102.9 6.07366 102.641 4.60492C102.391 3.1621 100.693 2.23766 99.2961 2.45365C98.4684 2.58325 97.5891 3.36946 97.1408 4.07791C95.1147 7.30913 93.3991 13.7457 91.5196 17.3225C91.1661 21.3658 95.244 23.0851 97.477 19.491Z" fill="white"/>
<path d="M39.1447 34.282C41.1793 34.8177 43.2054 33.9624 43.395 31.6815C43.5502 29.8845 41.2828 28.1306 40.0068 27.0507C38.1963 25.5215 30.8509 20.0785 28.8594 20.5018C26.204 21.0721 26.2557 24.1391 27.7041 25.9534C28.4714 26.9124 38.1101 34.0142 39.1447 34.282Z" fill="white"/>
<path d="M71.5782 33.0984C76.9752 32.3554 82.7343 34.6363 87.7864 36.3901C103.262 41.7726 123.763 49.5396 138.135 57.0648C147.464 61.9375 154.214 72.5988 159.784 81.5235C166.56 92.3836 175.423 106.077 168.457 118.855C155.559 140.584 141.86 165.242 126.876 185.51C115.263 201.217 107.297 199.316 90.1314 193.7C66.2674 185.89 42.5327 173.596 21.0827 160.68C9.06453 153.457 1.86567 150.71 0.719029 134.934C0.00345427 125.11 7.54717 114.561 12.7372 106.492C16.522 100.608 20.6086 95.0791 24.1175 89.1696C31.4888 76.7631 40.4809 64.6503 49.404 53.2806C54.6113 46.654 62.862 34.2993 71.5696 33.0984H71.5782ZM72.9921 42.4983C71.9144 42.6538 70.6471 43.4055 69.6556 43.8893C58.2409 57.203 46.102 71.5707 35.7736 85.7742C33.9545 88.2711 29.6524 94.1633 30.4369 97.1526C31.1439 99.8568 38.4635 103.978 40.9981 105.421C55.6028 113.715 74.3026 120.825 90.2435 126.251C95.5456 128.057 98.4079 129.586 103.417 125.767C112.849 118.588 135.109 85.0485 138.791 73.6096C139.299 72.0372 139.963 70.3093 139.791 68.6246C139.032 66.3264 111.625 55.4491 107.529 53.8249C99.8391 50.7751 91.1487 47.0601 83.3378 44.6237C80.7427 43.8116 75.4923 42.1441 72.9835 42.4983H72.9921ZM24.2295 103.624C20.7638 109.974 16.3324 115.918 13.1511 122.441C11.0733 126.692 7.79719 133.672 9.15936 138.26C11.3061 145.5 19.7119 150.001 25.6693 153.742C45.283 166.028 68.828 177.553 90.7263 185.113C96.9423 187.255 106.262 191.186 112.59 188.638C118.047 186.435 119.565 181.225 122.453 176.853C134.118 159.194 152.438 135.426 160.473 116.514C164.086 108.004 163.327 105.594 159.387 97.4896C155.956 90.431 151.067 83.1132 146.446 76.789C142.127 88.8586 134.497 100.401 127.083 110.846C121.289 119.011 115.116 127.072 107.521 133.629C105.469 141.197 108.823 148.731 109.719 156.205C110.064 159.073 111.159 163.747 107.995 165.207C104.279 166.918 102.848 162.503 102.012 159.686C100.08 153.224 99.5718 144.437 94.7352 139.184C89.8986 133.932 73.6991 129.845 66.5433 126.925C54.4734 121.992 39.8515 115.339 29.4369 107.589C28.6092 106.976 24.7555 103.269 24.2382 103.632L24.2295 103.624Z" fill="#131212"/>
<path d="M63.1035 0.0777565C63.8019 -0.112315 64.3795 0.0518376 65.0002 0.354225C66.8107 1.22683 71.2594 12.7694 71.837 15.1625C73.0267 20.0439 68.7333 22.3334 66.5779 19.0245C65.2158 16.9337 61.8189 8.11261 61.1982 5.57256C60.7413 3.71504 60.8878 0.673891 63.0949 0.0777565H63.1035Z" fill="#131212"/>
<path d="M99.2961 2.45365C100.701 2.23766 102.391 3.1621 102.641 4.60492C102.891 6.04774 98.5374 17.789 97.477 19.491C95.244 23.0851 91.1661 21.3744 91.5196 17.3225C93.3991 13.7457 95.1147 7.30913 97.1407 4.0779C97.5891 3.36946 98.4684 2.58325 99.2961 2.45365Z" fill="#131212"/>
<path d="M40.0068 27.0507C41.2828 28.1306 43.5502 29.8931 43.395 31.6815C43.1967 33.971 41.1793 34.8177 39.1447 34.282C38.1187 34.0142 28.4714 26.9124 27.7041 25.9534C26.2557 24.1391 26.204 21.0721 28.8594 20.5018C30.8595 20.0699 38.205 25.5215 40.0068 27.0507Z" fill="#131212"/>
<path d="M61.6982 89.593C65.5002 88.7635 68.4832 94.1028 71.2679 96.2887C78.872 102.276 85.1915 102.129 94.0025 103.658C98.7098 104.479 98.7702 109.715 94.8733 110.596C84.2345 112.989 67.3711 105.378 61.1551 96.5392C59.698 94.4657 58.2841 90.3446 61.7068 89.6016L61.6982 89.593Z" fill="#131212"/>
<path d="M107.762 73.5578C109.728 73.1949 111.78 74.9315 111.633 76.9532C111.461 79.2772 104.029 93.4808 101.908 94.1115C98.7442 95.0618 97.0027 92.3836 97.7528 89.4806C98.1407 87.986 104.012 77.2728 105.141 75.6745C105.745 74.8192 106.702 73.7392 107.762 73.5492V73.5578Z" fill="#131212"/>
<path d="M80.9584 63.268C81.8033 63.9505 82.1567 65.4625 81.9498 66.5424C81.5877 68.3913 76.07 78.707 74.7165 80.0462C71.5007 83.2256 67.6556 80.5732 69.3195 75.5795C69.7247 74.3613 75.07 65.4798 76.0011 64.3739C77.2684 62.862 79.1651 61.8079 80.9584 63.268Z" fill="#131212"/>
</g>
<defs>
<clipPath id="clip0_89_18">
<rect width="170.324" height="197.796" fill="white" transform="translate(0.676025)"/>
</clipPath>
</defs>
</svg>
