<svg width="193" height="81" viewBox="0 0 193 81" fill="none" xmlns="http://www.w3.org/2000/svg">
<g clip-path="url(#clip0_14_512)">
<path d="M21.9749 23.5982C21.9932 24.8523 21.7615 25.8654 21.2737 26.6314C20.7798 27.3974 20.1396 27.9472 19.353 28.2746C18.5604 28.602 17.7311 28.7379 16.8531 28.6947C14.6337 28.5835 12.9142 27.7248 11.6948 26.1125C10.4753 24.5001 9.86554 21.8314 9.86554 18.1125C9.86554 14.6964 10.4082 12.1574 11.4996 10.5018C12.5911 8.84623 14.2556 8.01844 16.4995 8.01844C17.3287 8.01844 18.0665 8.12963 18.6945 8.3582C19.3226 8.58677 19.8591 8.93271 20.2981 9.39603C20.7372 9.85935 21.0725 10.4524 21.3042 11.1813C21.5359 11.9103 21.6761 12.769 21.7188 13.7636H31.3588C31.4868 11.1443 31.0112 8.80298 29.9503 6.73968C28.8832 4.67638 27.2248 3.04551 24.9809 1.85324C22.7432 0.660977 19.914 0.0679321 16.4995 0.0679321C13.085 0.0679321 10.0424 0.796883 7.57903 2.25478C5.11569 3.71269 3.23161 5.81305 1.93896 8.53735C0.646321 11.2616 0 14.511 0 18.2732C0 22.0353 0.621932 25.1858 1.87189 27.9596C3.12185 30.7395 4.98155 32.9016 7.45098 34.4522C9.92042 36.0027 12.9874 36.7687 16.658 36.7687C19.8408 36.7687 22.5481 36.2189 24.7797 35.1132C27.0113 34.0074 28.7064 32.4692 29.8588 30.4862C31.0112 28.5032 31.5539 26.2051 31.4929 23.592H21.981L21.9749 23.5982Z" fill="#131212"/>
<path d="M66.7174 2.22391C64.2296 0.766012 61.2297 0.0308838 57.7298 0.0308838C54.486 0.0308838 51.5898 0.759834 49.0472 2.22391C46.5046 3.68181 44.5107 5.776 43.0535 8.50648C41.6023 11.2308 40.8767 14.4802 40.8767 18.2423C40.8767 22.2206 41.5657 25.5812 42.9437 28.3179C44.3217 31.0545 46.2607 33.1302 48.7606 34.5387C51.2605 35.941 54.2056 36.6452 57.6018 36.6452C60.809 36.6452 63.6748 35.941 66.2174 34.5387C68.76 33.1302 70.766 31.0607 72.2416 28.3179C73.7171 25.5812 74.4488 22.2206 74.4488 18.2423C74.4488 14.4802 73.7842 11.2308 72.4489 8.50648C71.1136 5.776 69.2051 3.68799 66.7174 2.22391ZM62.6016 26.1125C61.2968 27.5704 59.6749 28.2993 57.7298 28.2993C55.7848 28.2993 54.2239 27.5333 52.858 25.9951C51.4922 24.4569 50.8093 21.8685 50.8093 18.2361C50.8093 14.6037 51.4617 12.1821 52.7605 10.6563C54.0653 9.13041 55.6872 8.36439 57.6323 8.36439C59.5773 8.36439 61.1627 9.13041 62.5163 10.6563C63.8699 12.1821 64.5528 14.7087 64.5528 18.2361C64.5528 22.023 63.9004 24.6484 62.6016 26.1063V26.1125Z" fill="#131212"/>
<path d="M109.551 1.94592C107.277 0.667171 104.472 0.0308838 101.143 0.0308838C97.814 0.0308838 94.7105 0.735124 92.1435 2.1436C89.5826 3.55209 87.5948 5.62156 86.1802 8.35822C84.7717 11.0949 84.0645 14.4555 84.0645 18.44C84.0645 22.4245 84.7291 25.575 86.0522 28.2932C87.3753 31.0113 89.2899 33.0808 91.7837 34.5078C94.2836 35.9348 97.3079 36.6514 100.851 36.6514C103.844 36.6514 106.436 36.1572 108.637 35.175C110.838 34.1927 112.576 32.7966 113.844 30.9866C115.112 29.1827 115.844 27.0577 116.033 24.6113H106.497C106.326 25.8901 105.783 26.9156 104.875 27.6939C103.966 28.4723 102.637 28.8615 100.887 28.8615C98.7774 28.8615 97.125 28.1881 95.9543 26.8353C94.7836 25.4824 94.0763 23.3388 93.8446 20.3921H116.332C116.374 19.6322 116.411 18.9589 116.441 18.3658C116.472 17.7728 116.49 17.2477 116.49 16.7906C116.49 13.1582 115.905 10.0941 114.734 7.60456C113.557 5.11501 111.832 3.23085 109.558 1.9521L109.551 1.94592ZM106.905 14.7087H94.0763C94.3446 13.0717 94.7531 11.6138 95.4421 10.5389C96.5519 8.79682 98.314 7.92579 100.729 7.92579C102.777 7.92579 104.302 8.49412 105.289 9.61226C106.283 10.7366 106.82 12.4354 106.905 14.7087Z" fill="#131212"/>
<path d="M148.014 24.2098C147.483 25.4021 146.672 26.4337 145.593 27.311C144.52 28.1882 143.313 28.6268 141.989 28.6268C141.093 28.6268 140.325 28.4167 139.685 27.9967C139.044 27.5766 138.551 26.792 138.191 25.643C137.843 24.494 137.666 22.8322 137.666 20.6454V0.716614H127.673V24.0183C127.673 28.3241 128.551 31.5426 130.301 33.6738C132.045 35.8051 134.508 36.8676 137.666 36.8676C140.203 36.8676 142.227 36.3178 143.733 35.2306C145.239 34.1371 146.373 32.7287 147.13 30.9928C147.788 29.4978 148.221 27.8978 148.495 26.2422L149.16 36.1572H158.001V0.716614H148.008V24.216L148.014 24.2098Z" fill="#131212"/>
<path d="M191.829 0.067953C191.39 0.0247102 190.957 0 190.531 0C189.061 0 187.75 0.3027 186.61 0.9081C185.47 1.5135 184.488 2.366 183.677 3.47178C182.866 4.57756 182.202 5.8872 181.689 7.41306C181.342 8.43235 181.183 9.64315 180.982 10.8107L180.378 0.741306H171.47V36.1572H181.464V13.2755C181.933 12.5837 182.519 12.0153 183.226 11.5705C183.927 11.1258 184.756 10.7984 185.708 10.5821C186.659 10.3659 187.72 10.2547 188.896 10.2547C189.561 10.2547 190.226 10.2918 190.896 10.3659C191.567 10.4401 192.268 10.576 193 10.7736V0.290345C192.659 0.179149 192.262 0.105018 191.829 0.0617755V0.067953Z" fill="#131212"/>
<path d="M21.9749 67.7245C21.9932 68.9785 21.7615 69.9916 21.2737 70.7576C20.7798 71.5237 20.1396 72.0735 19.353 72.4009C18.5604 72.7283 17.7311 72.8642 16.8531 72.8209C14.6337 72.7097 12.9142 71.8511 11.6947 70.2387C10.4753 68.6264 9.86554 65.9577 9.86554 62.2388C9.86554 58.8226 10.4082 56.2836 11.4996 54.6281C12.5911 52.9725 14.2556 52.1447 16.4995 52.1447C17.3287 52.1447 18.0665 52.2559 18.6945 52.4845C19.3226 52.713 19.8591 53.059 20.2981 53.5223C20.7371 53.9856 21.0725 54.5786 21.3042 55.3076C21.5359 56.0365 21.6761 56.8952 21.7188 57.8898H31.3588C31.4868 55.2705 31.0112 52.9292 29.9503 50.8659C28.8832 48.8026 27.2247 47.1718 24.9809 45.9795C22.7371 44.7872 19.9079 44.1942 16.4934 44.1942C13.0788 44.1942 10.0363 44.9231 7.57293 46.381C5.10349 47.8389 3.2255 49.9393 1.93286 52.6636C0.640218 55.3879 -0.00610352 58.6373 -0.00610352 62.3994C-0.00610352 66.1615 0.615828 69.3121 1.86579 72.0858C3.11575 74.8657 4.97545 77.0278 7.44488 78.5784C9.91432 80.129 12.9813 80.895 16.6519 80.895C19.8347 80.895 22.542 80.3452 24.7736 79.2394C27.0052 78.1336 28.7003 76.5954 29.8527 74.6124C31.0051 72.6294 31.5478 70.3314 31.4868 67.7183H21.9749V67.7245Z" fill="#131212"/>
<path d="M66.7174 46.3501C64.2296 44.8922 61.2297 44.1571 57.7298 44.1571C54.486 44.1571 51.5898 44.8861 49.0472 46.3501C46.5046 47.808 44.5107 49.9022 43.0535 52.6327C41.6023 55.357 40.8767 58.6064 40.8767 62.3685C40.8767 66.3469 41.5657 69.7074 42.9437 72.4441C44.3217 75.1807 46.2607 77.2564 48.7606 78.6649C51.2605 80.0672 54.2056 80.7714 57.6018 80.7714C60.809 80.7714 63.6748 80.0672 66.2174 78.6649C68.76 77.2564 70.766 75.1869 72.2416 72.4441C73.7171 69.7074 74.4488 66.3469 74.4488 62.3685C74.4488 58.6064 73.7842 55.357 72.4489 52.6327C71.1136 49.9022 69.2051 47.8142 66.7174 46.3501ZM62.6016 70.2449C61.2968 71.7028 59.6749 72.4317 57.7298 72.4317C55.7848 72.4317 54.2239 71.6657 52.858 70.1275C51.4922 68.5893 50.8093 66.0071 50.8093 62.3685C50.8093 58.7299 51.4617 56.3145 52.7605 54.7887C54.0653 53.2628 55.6872 52.4968 57.6323 52.4968C59.5773 52.4968 61.1627 53.2628 62.5163 54.7887C63.8699 56.3145 64.5528 58.8411 64.5528 62.3685C64.5528 66.1553 63.9004 68.7808 62.6016 70.2387V70.2449Z" fill="#131212"/>
<path d="M109.551 46.0721C107.277 44.7934 104.472 44.1571 101.143 44.1571C97.814 44.1571 94.7105 44.8613 92.1435 46.2698C89.5826 47.6783 87.5948 49.7478 86.1802 52.4844C84.7717 55.2211 84.0645 58.5817 84.0645 62.5662C84.0645 66.5507 84.7291 69.7013 86.0522 72.4194C87.3753 75.1375 89.2899 77.207 91.7837 78.634C94.2836 80.061 97.3079 80.7776 100.851 80.7776C103.844 80.7776 106.436 80.2834 108.637 79.3012C110.838 78.3189 112.576 76.9228 113.844 75.1128C115.112 73.3089 115.844 71.1839 116.033 68.7376H106.497C106.326 70.0163 105.783 71.0418 104.875 71.8202C103.966 72.5985 102.637 72.9877 100.887 72.9877C98.7774 72.9877 97.125 72.3144 95.9543 70.9615C94.7836 69.6086 94.0763 67.465 93.8446 64.5183H116.332C116.374 63.7585 116.411 63.0851 116.441 62.4921C116.472 61.899 116.49 61.3739 116.49 60.9168C116.49 57.2844 115.905 54.2203 114.734 51.7308C113.557 49.2412 111.832 47.3571 109.558 46.0783L109.551 46.0721ZM106.905 58.835H99.8566H97.9055H94.0763C94.3446 57.1979 94.7531 55.74 95.4421 54.6651C96.5519 52.923 98.314 52.052 100.729 52.052C102.777 52.052 104.302 52.6203 105.289 53.7385C106.283 54.8628 106.82 56.5616 106.905 58.835Z" fill="#131212"/>
<path d="M148.014 68.3422C147.483 69.5345 146.672 70.5661 145.593 71.4433C144.52 72.3205 143.313 72.7591 141.989 72.7591C141.093 72.7591 140.325 72.5491 139.685 72.129C139.044 71.709 138.551 70.9244 138.191 69.7754C137.843 68.6264 137.666 66.9646 137.666 64.7778V44.849H127.673V68.1507C127.673 72.4564 128.551 75.6749 130.301 77.8062C132.045 79.9375 134.508 81 137.666 81C140.203 81 142.227 80.4502 143.733 79.3629C145.239 78.2695 146.373 76.861 147.13 75.1251C147.788 73.6302 148.221 72.0302 148.495 70.3746L149.16 80.2896H158.001V44.8428H148.008V68.3422H148.014Z" fill="#131212"/>
<path d="M190.531 44.1262C189.061 44.1262 187.75 44.4289 186.61 45.0343C185.47 45.6397 184.488 46.4922 183.677 47.598C182.866 48.7038 182.202 50.0134 181.689 51.5393C181.342 52.5586 181.183 53.7694 180.982 54.9369L180.378 44.8675H171.47V80.2834H181.464V57.4018C181.933 56.7099 182.519 56.1416 183.226 55.6968C183.927 55.252 184.756 54.9246 185.708 54.7084C186.659 54.4922 187.72 54.381 188.896 54.381C189.561 54.381 190.226 54.418 190.896 54.4922C191.567 54.5663 192.268 54.7022 193 54.8999V44.4166C192.659 44.3054 192.262 44.2313 191.829 44.188C191.39 44.1448 190.957 44.1201 190.531 44.1201V44.1262Z" fill="#131212"/>
</g>
<defs>
<clipPath id="clip0_14_512">
<rect width="193" height="81" fill="white"/>
</clipPath>
</defs>
</svg>
