<svg width="125" height="138" viewBox="0 0 125 138" fill="none" xmlns="http://www.w3.org/2000/svg">
<g clip-path="url(#clip0_26_30)">
<path d="M104.217 38.561C97.7501 26.905 84.6438 19.0854 71.319 23.0353C63.859 25.2408 60.0926 29.4046 54.4661 34.21C51.964 36.3487 49.2302 36.5737 46.2648 34.8851C34.8927 28.3887 25.1755 21.5783 11.7316 29.1573C-9.68208 41.2343 3.14624 72.3859 11.6256 88.9809C24.6062 114.378 46.0198 135.057 75.4959 137.596C79.5932 137.951 84.1341 138.432 87.4769 135.692C93.3483 130.873 100.835 110.214 103.317 102.482C109.586 82.9391 114.676 57.415 104.217 38.561Z" fill="#FFC7F4"/>
<path d="M99.2309 19.3954L106.539 10.5465C107.353 8.90903 106.221 6.91736 104.334 7.27158C102.944 7.53224 96.3713 15.1781 95.7027 16.7086C94.6503 19.108 97.106 21.2467 99.2309 19.4021V19.3954Z" fill="white"/>
<path d="M78.0357 12.8456C78.4593 15.2183 82.0073 14.6969 82.4177 12.5048C82.7023 10.9809 82.1264 2.03848 81.4314 0.875563C80.9283 0.0334471 79.8229 -0.15369 78.9425 0.113649C78.1681 0.34757 77.7643 1.15627 77.665 1.90481C77.3605 4.28413 77.5988 10.4329 78.029 12.8456H78.0357Z" fill="white"/>
<path d="M113.985 36.8726C114.919 36.8125 123.868 33.8784 124.305 33.4306C125.808 31.9202 124.735 29.474 122.597 29.5342C121.287 29.5676 114.144 31.6862 112.92 32.3546C110.437 33.718 111.569 37.033 113.985 36.8659V36.8726Z" fill="white"/>
<path d="M54.4641 34.3396C60.0906 29.5275 63.857 25.3704 71.317 23.1649C84.6418 19.2217 97.7481 27.0346 104.215 38.6906C114.674 57.5446 109.584 83.0754 103.315 102.611C100.833 110.337 93.3462 131.002 87.4749 135.821C84.1321 138.561 79.5912 138.08 75.4938 137.726C46.0244 135.186 24.6108 114.508 11.6236 89.1106C3.14421 72.5222 -9.69073 41.3706 11.7295 29.2869C25.1734 21.7079 34.8907 28.5183 46.2627 35.0147C49.2282 36.7078 51.962 36.4828 54.4641 34.3396ZM95.0805 34.7607C87.177 26.7539 77.1156 25.1231 67.1865 30.6036C63.0494 32.8826 59.9979 36.866 56.344 39.8134C55.6622 40.3681 53.8617 41.0164 53.8088 41.6981C55.2452 43.7767 56.9331 45.7015 58.204 47.9004C58.7005 48.7492 60.5142 52.0642 60.3818 52.7392C60.3487 52.913 59.5875 54.0558 59.422 54.2029C58.1312 55.3524 56.8074 54.4435 55.8476 53.3541C53.7625 50.9814 51.9488 47.633 49.771 45.1401C40.2656 34.2461 18.0642 24.5083 8.50589 40.3882C-0.880365 55.9873 16.0321 86.0362 25.4316 99.0956C40.345 119.828 54.8149 129.345 80.2598 132.58C84.9132 133.175 87.3557 126.631 89.1032 123.116C91.8767 117.535 94.4318 111.213 96.5368 105.338C104.083 84.2517 112.992 52.9196 95.0805 34.7674V34.7607Z" fill="#131212"/>
<path d="M99.2308 19.3954C97.1126 21.2467 94.6568 19.1013 95.7027 16.702C96.3712 15.1715 102.944 7.52559 104.334 7.26494C106.221 6.91072 107.346 8.90907 106.539 10.5398L99.2308 19.3887V19.3954Z" fill="#131212"/>
<path d="M78.9491 0.113649C79.8295 -0.15369 80.9349 0.0334471 81.438 0.875563C82.133 2.03848 82.7089 10.9809 82.4243 12.5048C82.0139 14.6969 78.4593 15.2249 78.0356 12.8456C77.6054 10.4329 77.3671 4.27744 77.6716 1.90481C77.7709 1.15627 78.1746 0.34757 78.9491 0.113649Z" fill="#131212"/>
<path d="M124.305 33.4307C123.868 33.8718 114.919 36.8058 113.985 36.8726C111.569 37.0397 110.437 33.7247 112.92 32.3613C114.144 31.6863 121.28 29.5743 122.597 29.5409C124.742 29.4807 125.808 31.9269 124.305 33.4373V33.4307Z" fill="#131212"/>
<path d="M82.2985 81.9125C75.9174 91.3161 61.5071 96.322 50.5918 94.19C48.1625 93.7154 40.7289 91.0421 42.6618 87.5132C42.8008 87.2592 44.0187 86.5107 44.3431 86.4973C45.0845 86.4773 49.301 88.4355 50.5322 88.7764C58.4887 90.9685 70.2711 87.8006 76.2087 81.9191C77.7642 80.3753 79.9354 75.4028 82.603 77.5883C84.185 78.8915 83.2054 80.5691 82.2919 81.9125H82.2985Z" fill="#131212"/>
<path d="M72.3827 70.1897C72.8196 69.7085 73.8059 69.2941 74.4546 69.381C77.8239 69.8355 77.2877 80.7763 72.9586 78.7846C71.0125 77.889 71.1714 71.5264 72.3827 70.1897Z" fill="#131212"/>
<path d="M45.7597 72.2348C47.8315 72.1279 48.6722 74.7278 48.884 76.4387C49.1488 78.6108 49.4136 82.9952 46.1105 81.9726C44.5748 81.4981 41.9668 72.4286 45.7597 72.2348Z" fill="#131212"/>
</g>
<defs>
<clipPath id="clip0_26_30">
<rect width="125" height="138" fill="white"/>
</clipPath>
</defs>
</svg>
