<svg width="59" height="24" viewBox="0 0 59 24" fill="none" xmlns="http://www.w3.org/2000/svg">
<path d="M28.7125 15.799C27.9166 18.9614 24.5917 18.4427 24.1534 15.4328C23.875 13.512 25.2808 1.84478 26.3372 0.700007C27.7707 -0.854084 29.8624 0.373681 30.0767 2.48134L28.7087 15.7925L28.7125 15.799Z" fill="#131212"/>
<path d="M0.378235 9.99035C0.990065 9.1656 2.05092 8.63985 2.95737 9.13875C4.2094 9.82749 9.71257 18.1789 10.3193 19.8472C11.1913 22.2479 8.41231 25.0402 6.7142 22.9914C4.99167 20.9142 1.34036 15.0643 0.275772 12.5555C-0.0573084 11.762 -0.160694 10.7146 0.378235 9.99035Z" fill="#131212"/>
<path d="M58.2552 13.4209C58.1242 14.131 52.0258 22.7259 51.256 23.3891C49.2598 25.0999 46.4254 22.5925 47.8092 19.6725C48.4906 18.2297 53.4804 11.5985 54.601 10.7219C56.4223 9.28922 58.7131 10.9918 58.2589 13.4275L58.2552 13.4209Z" fill="#131212"/>
</svg>
